<?xml version="1.0" encoding="utf-8"?>
<!-- Generator: Adobe Illustrator 19.0.1, SVG Export Plug-In . SVG Version: 6.00 Build 0)  -->
<svg version="1.1" id="Слой_1" xmlns="http://www.w3.org/2000/svg" xmlns:xlink="http://www.w3.org/1999/xlink" x="0px" y="0px"
	 viewBox="-410 197 138 167" style="enable-background:new -410 197 138 167;" xml:space="preserve">
<style type="text/css">
	.st0{fill:#E8E8E8;}
</style>
<g>
	<g>
		<path class="st0" d="M-337.2,308.7c-6.4,0-11.5,5.2-11.5,11.5c0,6.4,5.2,11.5,11.5,11.5c6.4,0,11.5-5.2,11.5-11.5
			C-325.6,313.9-330.8,308.7-337.2,308.7z M-337.2,308.7c-6.4,0-11.5,5.2-11.5,11.5c0,6.4,5.2,11.5,11.5,11.5
			c6.4,0,11.5-5.2,11.5-11.5C-325.6,313.9-330.8,308.7-337.2,308.7z M-337.2,308.7c-6.4,0-11.5,5.2-11.5,11.5
			c0,6.4,5.2,11.5,11.5,11.5c6.4,0,11.5-5.2,11.5-11.5C-325.6,313.9-330.8,308.7-337.2,308.7z M-337.2,308.7
			c-6.4,0-11.5,5.2-11.5,11.5c0,6.4,5.2,11.5,11.5,11.5c6.4,0,11.5-5.2,11.5-11.5C-325.6,313.9-330.8,308.7-337.2,308.7z
			 M-302.5,224h-104c-2,0-3.5,1.6-3.5,3.5v132.9c0,2,1.6,3.5,3.5,3.5h103.9c2,0,3.5-1.6,3.5-3.5V227.5
			C-299,225.6-300.6,224-302.5,224z M-389.6,248.9h23.6c2.2,0,4,1.8,4,4c0,2.2-1.8,4-4,4h-23.6c-2.2,0-4-1.8-4-4
			C-393.6,250.7-391.8,248.9-389.6,248.9z M-389.6,267.3h67.2c2.2,0,4,1.8,4,4c0,2.2-1.8,4-4,4h-67.2c-2.2,0-4-1.8-4-4
			C-393.6,269.1-391.8,267.3-389.6,267.3z M-359.8,293.6h-29.8c-2.2,0-4-1.8-4-4c0-2.2,1.8-4,4-4h29.8c2.2,0,4,1.8,4,4
			C-355.8,291.8-357.6,293.6-359.8,293.6z M-328,337.5l2.9,5.1c1.1,1.9,0.5,4.4-1.5,5.5c-0.6,0.4-1.3,0.5-2,0.5
			c-1.4,0-2.7-0.7-3.5-2l-4-6.8l-0.7-1.2c-0.1-0.1-0.1-0.3-0.2-0.4c0,0.1-0.1,0.3-0.2,0.4l-0.7,1.2l-3.9,6.8c-0.7,1.3-2.1,2-3.5,2
			c-0.7,0-1.4-0.2-2-0.5c-1.9-1.1-2.6-3.6-1.5-5.5l2.8-4.8c-6.5-3.2-11-9.9-11-17.5c0-10.8,8.8-19.5,19.5-19.5
			c10.8,0,19.5,8.8,19.5,19.5C-317.6,327.7-321.8,334.2-328,337.5z M-337.2,308.7c-6.4,0-11.5,5.2-11.5,11.5
			c0,6.4,5.2,11.5,11.5,11.5c6.4,0,11.5-5.2,11.5-11.5C-325.6,313.9-330.8,308.7-337.2,308.7z M-336.8,338.2V335
			C-337.2,336-337.3,337.2-336.8,338.2z M-337.2,308.7c-6.4,0-11.5,5.2-11.5,11.5c0,6.4,5.2,11.5,11.5,11.5
			c6.4,0,11.5-5.2,11.5-11.5C-325.6,313.9-330.8,308.7-337.2,308.7z M-337.2,308.7c-6.4,0-11.5,5.2-11.5,11.5
			c0,6.4,5.2,11.5,11.5,11.5c6.4,0,11.5-5.2,11.5-11.5C-325.6,313.9-330.8,308.7-337.2,308.7z M-337.2,308.7
			c-6.4,0-11.5,5.2-11.5,11.5c0,6.4,5.2,11.5,11.5,11.5c6.4,0,11.5-5.2,11.5-11.5C-325.6,313.9-330.8,308.7-337.2,308.7z
			 M-337.2,308.7c-6.4,0-11.5,5.2-11.5,11.5c0,6.4,5.2,11.5,11.5,11.5c6.4,0,11.5-5.2,11.5-11.5
			C-325.6,313.9-330.8,308.7-337.2,308.7z"/>
	</g>
	<g>
		<path class="st0" d="M-275.7,197h-103.8c-2,0-3.5,1.4-3.5,3.3V215h7v-11h97v125h-11v7h14.3c2,0,3.8-1.2,3.8-3.1V200.3
			C-272,198.4-273.8,197-275.7,197z"/>
	</g>
	<g>
		<path class="st0" d="M-336.8,335v3.3C-337.3,337.2-337.2,336-336.8,335z"/>
	</g>
	<g>
		<path class="st0" d="M-336.8,335v3.3C-337.3,337.2-337.2,336-336.8,335z"/>
	</g>
	<g>
		<path class="st0" d="M-336.6,338.6c-0.1-0.1-0.1-0.3-0.2-0.4c0,0.1-0.1,0.3-0.2,0.4l-0.7,1.2c0.2,0,0.3,0,0.5,0
			c0.4,0,0.8,0,1.3-0.1L-336.6,338.6z M-336.8,338.2V335C-337.2,336-337.3,337.2-336.8,338.2z"/>
	</g>
</g>
</svg>
