<?xml version="1.0" encoding="utf-8"?>
<!-- Generator: Adobe Illustrator 19.0.1, SVG Export Plug-In . SVG Version: 6.00 Build 0)  -->
<svg version="1.1" id="Layer_1" xmlns="http://www.w3.org/2000/svg" xmlns:xlink="http://www.w3.org/1999/xlink" x="0px" y="0px"
	 viewBox="0 0 298.9 47.5" enable-background="new 0 0 298.9 47.5" xml:space="preserve">
<path fill-rule="evenodd" clip-rule="evenodd" fill="#dc0227" d="M33.4,0H14.1C6.3,0,0,6.3,0,14.1v19.2c0,7.8,6.3,14.1,14.1,14.1
	h19.2c7.8,0,14.1-6.3,14.1-14.1V14.1C47.5,6.3,41.2,0,33.4,0z"/>
<path fill-rule="evenodd" clip-rule="evenodd" fill="#FFFFFF" d="M38.8,29.6l0,0.2c-0.1,0.8-0.6,1.7-1.4,1.7c-0.7,0-1.2-0.2-1.6-0.7
	c-0.5-0.6-1-1.3-1.4-2.6c1.3-4.5,5.4-19,5.4-19h-7.8c0,0-0.7,3.4-1.4,6.5c0-0.1-0.1-0.2-0.1-0.2c-0.7-1.4-1.7-2.9-2.8-4
	c-1.7-1.6-3.6-2.5-5.8-2.7v3.9c1.5,0.1,2.8,0.9,3.9,2.3c1.3,1.7,2.4,4.5,3.2,8.1c-1,4.9-1.9,7.8-3.1,9.5c-1.1,1.5-2.4,2.4-3.9,2.6
	v3.7c2-0.2,3.9-0.9,5.7-2.1c1.4-0.9,2.7-2.2,3.9-3.9c0.5,1.7,1,2.8,1.6,3.6c1,1.4,2.5,2.2,4.1,2.2c1.7,0,3.2-0.9,4-2.2
	c0.7-1.2,1-2.7,1-5.2v-1.5H38.8z M21.8,8.6c-0.5-0.1-0.9-0.1-1.4-0.1c-3.9,0-7.3,1.5-9.9,4.3c-2.6,2.9-4,6.5-4,10.6
	c0,4.5,1.3,8.3,3.9,11.1c2.7,2.9,5.9,4.3,10.2,4.3c0.4,0,0.8,0,1.3-0.1v-3.7c-0.2,0-0.4,0-0.5,0c-2,0-3.6-0.9-4.7-2.8
	c-1.2-2-1.8-4.9-1.8-8.8c0-3.5,0.6-6.3,1.9-8.3c1.2-1.9,2.7-2.8,4.6-2.8c0.2,0,0.3,0,0.5,0V8.6z"/>
<path fill-rule="evenodd" clip-rule="evenodd" fill="#dc0227" d="M71.3,9.8c-0.5-2.4-2.1-4.1-5.4-4.1v3.2c1.3,0,1.8,1,1.9,1.6
	l0.9,3.9h-2.8v3.1h3.5l0.5,2.2c0.1,0.6,0.7,1.1,1.3,1.1h2.6L71.3,9.8z M65.9,5.7c-3.2,0-4.9,1.7-5.4,4.1l-2.4,11h2.6
	c0.6,0,1.2-0.5,1.3-1.1l0.5-2.2h3.5v-3.1h-2.8l0.9-3.9c0.1-0.6,0.6-1.6,1.9-1.6V5.7z"/>
<path fill-rule="evenodd" clip-rule="evenodd" fill="#dc0227" d="M80.2,9.3H86v11.4h3.6V6H78.7c-1.2,0-2.2,1-2.2,2.2v7.5
	c0,1-0.5,1.6-1.3,1.8l-0.7,0.2l0.7,3.2h0.7c2.5,0,4.2-1.8,4.2-5V9.3z"/>
<path fill-rule="evenodd" clip-rule="evenodd" fill="#dc0227" d="M122,20.7c3.8-0.5,6.1-3.4,6.1-7.3c0-4-2.3-6.8-6.1-7.3v3.3
	c1.7,0.4,2.5,1.9,2.5,4c0,2.1-0.8,3.6-2.5,4V20.7z M120.9,6h-1.3V4.3H117c-0.6,0-1.1,0.5-1.1,1.1V6h-1.3c-0.4,0-0.8,0-1.2,0.1v3.3
	c0.3-0.1,0.7-0.1,1.2-0.1h1.3v8.2h-1.3c-0.4,0-0.8,0-1.2-0.1v3.3c0.4,0,0.8,0.1,1.2,0.1h1.3v1.8h2.5c0.6,0,1.1-0.5,1.1-1.1l0-0.7
	h1.3c0.4,0,0.8,0,1.2-0.1v-3.3c-0.3,0.1-0.7,0.1-1.2,0.1h-1.3V9.3h1.3c0.4,0,0.8,0,1.2,0.1V6.1C121.7,6.1,121.3,6,120.9,6z
	 M113.5,6.1c-3.8,0.5-6.1,3.4-6.1,7.3c0,4,2.3,6.8,6.1,7.3v-3.3c-1.7-0.4-2.5-1.9-2.5-4c0-2.1,0.8-3.5,2.5-4V6.1z"/>
<path fill-rule="evenodd" clip-rule="evenodd" fill="#dc0227" d="M100.8,9.8h-1.6v3.3h1.6c0.9,0,1.9,0.8,1.9,2.2
	c0,1.4-1,2.2-1.9,2.2h-1.6v3.3h1.6c3.1,0,5.5-2.4,5.5-5.5S104.3,9.8,100.8,9.8z M99.1,9.8h-3.5V6H92v13.7c0,0.6,0.5,1.1,1.1,1.1h6.1
	v-3.3h-3.5v-4.4h3.5V9.8z"/>
<path fill-rule="evenodd" clip-rule="evenodd" fill="#dc0227" d="M141.5,9.8c-0.5-2.4-2.1-4.1-5.4-4.1l0,0v3.2l0,0
	c1.3,0,1.8,1,1.9,1.6l0.9,3.9h-2.8v3.1h3.5l0.5,2.2c0.1,0.6,0.7,1.1,1.3,1.1h2.6L141.5,9.8z M136.1,5.7c-3.2,0-4.9,1.7-5.4,4.1
	l-2.4,11h2.6c0.6,0,1.2-0.5,1.3-1.1l0.5-2.2h3.5v-3.1h-2.8l0.9-3.9c0.1-0.6,0.6-1.6,1.9-1.6V5.7z"/>
<path fill-rule="evenodd" clip-rule="evenodd" fill="#dc0227" d="M162.4,33.8c0.6-0.6,1-1.5,1-2.7c0-2.6-2-4.4-4.6-4.4h-2.6v3.1h2.6
	c0.5,0,1.1,0.5,1.1,1.5c0,0.9-0.7,1.4-1.1,1.5h-2.6v2.8h2.9c0.5,0.1,1.1,0.5,1.1,1.5c0,0.9-0.7,1.5-1.1,1.5h-2.9v3.1h3.2
	c2.8,0,4.6-2,4.6-4.6C164,35.6,163.4,34.6,162.4,33.8z M156.2,26.7H150c-0.6,0-1.1,0.5-1.1,1.1v12.6c0,0.6,0.5,1.1,1.1,1.1h6.2v-3.1
	h-3.7v-2.9h3.7v-2.8h-3.7v-2.9h3.7V26.7z"/>
<path fill-rule="evenodd" clip-rule="evenodd" fill="#dc0227" d="M139.3,41.8h0.6c4.5,0,7.6-3.2,7.6-7.7c0-4.5-3.1-7.7-7.6-7.7h-0.6
	v3h0.4c2.5,0,3.9,2,3.9,4.7c0,2.6-1.4,4.7-3.9,4.7h-0.4V41.8z M138.6,26.4c-4.5,0-7.6,3.2-7.6,7.7c0,4.5,3.1,7.7,7.6,7.7h0.6v-3
	h-0.4c-2.5,0-3.9-2-3.9-4.7c0-2.6,1.4-4.7,3.9-4.7h0.4v-3H138.6z"/>
<path fill-rule="evenodd" clip-rule="evenodd" fill="#dc0227" d="M253,41.8h0.6c4.5,0,7.6-3.2,7.6-7.7c0-4.5-3.1-7.7-7.6-7.7H253v3
	h0.4c2.5,0,3.9,2,3.9,4.7c0,2.6-1.4,4.7-3.9,4.7H253V41.8z M252.4,26.4c-4.5,0-7.6,3.2-7.6,7.7c0,4.5,3.1,7.7,7.6,7.7h0.6v-3h-0.4
	c-2.5,0-3.9-2-3.9-4.7c0-2.6,1.4-4.7,3.9-4.7h0.4v-3H252.4z"/>
<path fill-rule="evenodd" clip-rule="evenodd" fill="#dc0227" d="M71.4,26.7l0.5,2.2c0.1,0.6,0.7,1.1,1.3,1.1h3.4v11.4h3.6V30.1h3.3
	c0.6,0,1.2-0.5,1.3-1.1l0.5-2.2H71.4z"/>
<polygon fill-rule="evenodd" clip-rule="evenodd" fill="#dc0227" points="192.7,26.7 192.7,32.6 185.7,32.6 185.7,26.7 182.1,26.7
	182.1,41.5 185.7,41.5 185.7,35.8 192.7,35.8 192.7,41.5 196.4,41.5 196.4,26.7 "/>
<path fill-rule="evenodd" clip-rule="evenodd" fill="#dc0227" d="M113.3,30.5c-0.5-2.4-2.1-4.1-5.4-4.1v3.2c1.3,0,1.8,1,1.9,1.6
	l0.9,3.9h-2.8v3.1h3.5l0.5,2.2c0.1,0.6,0.7,1.1,1.3,1.1h2.6L113.3,30.5z M107.9,26.4L107.9,26.4c-3.2,0-4.9,1.7-5.4,4.1l-2.4,11h2.6
	c0.6,0,1.2-0.5,1.3-1.1l0.5-2.2h3.5v-3.1h-2.8l0.9-3.9c0.1-0.6,0.6-1.6,1.9-1.6h0V26.4z"/>
<path fill-rule="evenodd" clip-rule="evenodd" fill="#dc0227" d="M178.1,30.5c-0.5-2.4-2.1-4.1-5.4-4.1v3.2c1.3,0,1.8,1,1.9,1.6
	l0.9,3.9h-2.8v3.1h3.5l0.5,2.2c0.1,0.6,0.7,1.1,1.3,1.1h2.6L178.1,30.5z M172.7,26.4L172.7,26.4c-3.2,0-4.9,1.7-5.4,4.1l-2.4,11h2.6
	c0.6,0,1.2-0.5,1.3-1.1l0.5-2.2h3.5v-3.1h-2.8l0.9-3.9c0.1-0.6,0.6-1.6,1.9-1.6h0V26.4z"/>
<path fill-rule="evenodd" clip-rule="evenodd" fill="#dc0227" d="M72.5,41.5L72.5,41.5l-7,0c-4.3,0-7.2-3-7.2-7.4
	c0-4.3,3-7.4,7.2-7.4h5.3L70.3,29c-0.1,0.6-0.7,1-1.3,1h-3.5c-2.3,0-3.6,1.7-3.6,4.1c0,2.4,1.4,4.1,3.6,4.1h5.2
	c0.6,0,1.2,0.5,1.3,1.1L72.5,41.5z"/>
<path fill-rule="evenodd" clip-rule="evenodd" fill="#dc0227" d="M94.9,26.7l-1.6,0v3.3h1.6c0.9,0,1.9,0.8,1.9,2.2
	c0,1.4-1,2.2-1.9,2.2h-1.6v3.3h1.6c3.5,0,5.5-2.4,5.5-5.5C100.4,29.1,98,26.7,94.9,26.7z M93.2,26.7l-6.1,0c-0.6,0-1.1,0.5-1.1,1.1
	v13.7h3.6v-3.7h3.5v-3.3h-3.5v-4.4h3.5V26.7z"/>
<path fill-rule="evenodd" clip-rule="evenodd" fill="#dc0227" d="M226.9,38.4h-7.8v-2.8h8.4v-2.8h-8.4v-2.8h7.8
	c0.6,0,1.1-0.3,1.3-1.1l0.5-2.1h-12.1c-0.6,0-1.1,0.5-1.1,1.1v12.6c0,0.6,0.5,1.1,1.1,1.1h12.1l-0.5-2.1
	C228,38.7,227.5,38.4,226.9,38.4z"/>
<path fill-rule="evenodd" clip-rule="evenodd" fill="#dc0227" d="M198.8,41.5V26.7h3.6v9.7l6.2-8.9c0.4-0.5,1.1-0.9,1.7-0.9h2.7
	v14.8h-3.6v-9.7l-6.2,8.9c-0.3,0.5-1.1,0.9-1.7,0.9H198.8z"/>
<path fill-rule="evenodd" clip-rule="evenodd" fill="#dc0227" d="M126.6,34l5-7.3h-3.3c-0.7,0-1.2,0.2-1.7,0.9l-2.7,4.2h-0.5
	l-2.7-4.2c-0.4-0.7-0.9-0.9-1.7-0.9h-3.4l5.1,7.5l-5,7.3h3.3c0.7,0,1.2-0.2,1.7-0.9l2.7-4.2h0.5l2.7,4.2c0.4,0.7,0.9,0.9,1.7,0.9
	h3.4L126.6,34z"/>
<path fill-rule="evenodd" clip-rule="evenodd" fill="#dc0227" d="M230.7,35.6l0.4-2.1c0.1-0.6,0.7-1.1,1.3-1.1h10l-0.4,2.1
	c-0.1,0.6-0.7,1.1-1.3,1.1H230.7z"/>
<path fill-rule="evenodd" clip-rule="evenodd" fill="#dc0227" d="M275.6,39.6c-0.6,1.4-1.3,1.8-2.6,1.8c-1.4,0-2-0.5-2.6-1.8
	l-3.2-7.9v9.7h-3.6V26.7h3.9c0.8,0,1.5,0.3,1.7,0.9L273,37l3.8-9.4c0.2-0.6,0.9-0.9,1.7-0.9l3.9,0v14.8h-3.6v-9.7L275.6,39.6z"/>
<path fill-rule="evenodd" clip-rule="evenodd" fill="#dc0227" d="M292.1,29.8c-2.3,0-3.7,1.7-3.7,4.3c0,2.5,1.4,4.3,3.7,4.3h5
	c0.6,0,1.2,0.5,1.3,1.1l0.5,2.1H292c-4.3,0-7.3-3-7.3-7.4c0-4.4,3-7.4,7.3-7.4l5.8,0l-0.5,2.1c-0.1,0.6-0.7,1.1-1.3,1.1H292.1z"/>
</svg>
